# xmcd
#
# Track frame offsets: 
#        150
#        15086
#        37928
#        55952
#        77011
#        93478
#        106655
#        131182
#        152766
#        168578
#        184339
#        196651
#
# Disc length: 2773 seconds
#
# Revision: 2
# Processed by: cddbd v1.5.2PL0 Copyright (c) Steve Scherf et al.
# Submitted via: ExactAudioCopy v1.1
#
DISCID=8c0ad30c
DTITLE=Steve Wynn - The Emusic Singles Collection
DYEAR=2001
DGENRE=Americana
TTITLE0=Strange New World
TTITLE1=Last House On The Bridge
TTITLE2=The Last One Standing
TTITLE3=Micky White
TTITLE4=Melinda
TTITLE5=The Way I Feel Right Now
TTITLE6=The Devil's Not That Kind
TTITLE7=Merry-Go-Round
TTITLE8=I've Got To Do Things My Way
TTITLE9=Shake And Bake
TTITLE10=Down At The Hi-De-Ho
TTITLE11=At The End Of The Day
EXTD=
EXTT0=
EXTT1=
EXTT2=
EXTT3=
EXTT4=
EXTT5=
EXTT6=
EXTT7=
EXTT8=
EXTT9=
EXTT10=
EXTT11=
PLAYORDER=
